<?xml version="1.0" encoding="UTF-8" standalone="no"?>
<!DOCTYPE svg PUBLIC "-//W3C//DTD SVG 1.1//EN" "http://www.w3.org/Graphics/SVG/1.1/DTD/svg11.dtd">
<svg width="100%" height="100%" viewBox="0 0 178 51" version="1.1" xmlns="http://www.w3.org/2000/svg" xmlns:xlink="http://www.w3.org/1999/xlink" xml:space="preserve" xmlns:serif="http://www.serif.com/" style="fill-rule:evenodd;clip-rule:evenodd;stroke-linejoin:round;stroke-miterlimit:2;">
    <g transform="matrix(1,0,0,1,-15.9933,-8.88178e-16)">
        <g transform="matrix(1.08365,0,0,1.19872,-7.69334,-3.5214)">
            <path d="M185.207,13.574C185.207,7.704 179.935,2.938 173.442,2.938L33.624,2.938C27.13,2.938 21.858,7.704 21.858,13.574L21.858,34.847C21.858,40.717 27.13,45.483 33.624,45.483L173.442,45.483C179.935,45.483 185.207,40.717 185.207,34.847L185.207,13.574Z" style="fill:white;"/>
        </g>
        <g transform="matrix(1,0,0,1,6.25015,-1.65924)">
            <g transform="matrix(0.40183,0,0,0.40183,20.7886,13.7249)">
                <g id="Amazon_Kindle_logo.svg">
                    <g>
                        <path d="M134.49,69.526C122.099,78.671 104.136,83.533 88.668,83.533C66.989,83.533 47.467,75.519 32.695,62.18C31.535,61.132 32.57,59.701 33.964,60.513C49.902,69.787 69.613,75.373 89.97,75.373C103.702,75.373 118.798,72.522 132.689,66.631C134.783,65.744 136.54,68.013 134.49,69.526Z" style="fill:rgb(255,153,0);"/>
                        <path d="M139.646,63.641C138.061,61.612 129.171,62.679 125.176,63.158C123.966,63.304 123.778,62.246 124.868,61.48C131.961,56.499 143.582,57.937 144.933,59.605C146.294,61.288 144.576,72.939 137.929,78.499C136.907,79.354 135.934,78.898 136.387,77.769C137.884,74.033 141.232,65.671 139.646,63.641Z" style="fill:rgb(255,153,0);"/>
                        <path d="M125.458,26.289L125.458,21.448C125.462,20.711 126.016,20.22 126.686,20.222L148.381,20.22C149.074,20.22 149.631,20.724 149.631,21.441L149.631,25.593C149.625,26.29 149.038,27.198 147.998,28.64L136.76,44.685C140.931,44.587 145.345,45.212 149.135,47.343C149.989,47.822 150.218,48.533 150.286,49.231L150.286,54.397C150.286,55.108 149.506,55.932 148.687,55.502C142.011,52.005 133.149,51.623 125.765,55.546C125.011,55.947 124.222,55.136 124.222,54.423L124.222,49.514C124.222,48.728 124.237,47.384 125.03,46.187L138.05,27.508L126.714,27.507C126.018,27.508 125.462,27.014 125.458,26.289Z"/>
                        <path d="M46.321,56.521L39.72,56.521C39.092,56.479 38.591,56.008 38.539,55.405L38.544,21.531C38.544,20.853 39.113,20.312 39.817,20.312L45.964,20.31C46.607,20.343 47.123,20.829 47.163,21.448L47.163,25.87L47.287,25.87C48.889,21.593 51.908,19.597 55.973,19.597C60.101,19.597 62.689,21.594 64.537,25.87C66.14,21.593 69.774,19.597 73.656,19.597C76.428,19.597 79.448,20.738 81.296,23.304C83.39,26.156 82.961,30.289 82.961,33.925L82.955,55.303C82.955,55.979 82.386,56.522 81.682,56.522L75.09,56.522C74.427,56.479 73.906,55.955 73.906,55.305L73.904,37.347C73.904,35.923 74.027,32.358 73.718,31.004C73.225,28.722 71.747,28.08 69.838,28.08C68.235,28.08 66.571,29.149 65.893,30.86C65.216,32.571 65.277,35.422 65.277,37.347L65.277,55.304C65.277,55.98 64.708,56.523 64.005,56.523L57.412,56.523C56.749,56.48 56.227,55.956 56.227,55.306L56.221,37.348C56.221,33.57 56.837,28.011 52.156,28.011C47.411,28.011 47.596,33.428 47.596,37.348L47.594,55.305C47.595,55.979 47.024,56.521 46.321,56.521Z"/>
                        <path d="M168.307,19.597C178.103,19.597 183.4,28.01 183.4,38.701C183.4,49.036 177.548,57.235 168.307,57.235C158.696,57.235 153.458,48.822 153.458,38.344C153.458,27.794 158.757,19.597 168.307,19.597ZM168.367,26.512C163.5,26.512 163.193,33.14 163.193,37.275C163.193,41.409 163.132,50.248 168.307,50.248C173.422,50.248 173.667,43.12 173.667,38.773C173.667,35.922 173.544,32.5 172.68,29.79C171.941,27.438 170.461,26.512 168.367,26.512Z"/>
                        <path d="M196.105,56.521L189.529,56.521C188.868,56.478 188.344,55.954 188.344,55.304L188.333,21.417C188.389,20.797 188.936,20.312 189.601,20.312L195.723,20.31C196.3,20.34 196.775,20.733 196.896,21.258L196.896,26.44L197.021,26.44C198.87,21.805 201.456,19.596 206.015,19.596C208.972,19.596 211.869,20.665 213.716,23.589C215.441,26.297 215.441,30.859 215.441,34.138L215.441,55.454C215.369,56.054 214.829,56.52 214.176,56.52L207.561,56.52C206.95,56.481 206.457,56.032 206.386,55.454L206.386,37.062C206.386,33.355 206.818,27.937 202.258,27.937C200.655,27.937 199.177,29.006 198.438,30.645C197.513,32.713 197.389,34.779 197.389,37.062L197.389,55.302C197.379,55.979 196.809,56.521 196.105,56.521Z"/>
                        <path d="M108.164,40.344C108.164,42.917 108.225,45.059 106.928,47.346C105.879,49.202 104.211,50.346 102.36,50.346C99.829,50.346 98.347,48.416 98.347,45.559C98.347,39.938 103.389,38.916 108.165,38.916L108.165,40.344L108.164,40.344ZM114.817,56.437C114.381,56.83 113.751,56.855 113.258,56.59C111.067,54.769 110.674,53.927 109.475,52.193C105.852,55.883 103.287,56.991 98.593,56.991C93.037,56.991 88.714,53.561 88.714,46.703C88.714,41.346 91.616,37.703 95.753,35.916C99.333,34.344 104.335,34.059 108.164,33.629L108.164,32.772C108.164,31.2 108.287,29.344 107.36,27.986C106.557,26.771 105.014,26.271 103.655,26.271C101.138,26.271 98.901,27.561 98.35,30.234C98.236,30.829 97.802,31.418 97.204,31.448L90.807,30.755C90.266,30.633 89.666,30.2 89.821,29.375C91.293,21.615 98.301,19.271 104.581,19.271C107.793,19.271 111.99,20.126 114.522,22.557C117.734,25.557 117.424,29.559 117.424,33.917L117.424,44.198C117.424,47.292 118.709,48.648 119.915,50.314C120.337,50.916 120.431,51.628 119.893,52.068C118.545,53.199 116.15,55.279 114.832,56.452L114.817,56.437Z"/>
                        <path d="M21.64,40.344C21.64,42.917 21.702,45.059 20.406,47.346C19.358,49.202 17.689,50.346 15.837,50.346C13.306,50.346 11.824,48.416 11.824,45.559C11.824,39.938 16.867,38.916 21.64,38.916L21.64,40.344ZM28.295,56.437C27.859,56.83 27.228,56.855 26.736,56.59C24.543,54.769 24.15,53.927 22.953,52.193C19.329,55.883 16.764,56.991 12.072,56.991C6.515,56.991 2.193,53.561 2.193,46.703C2.193,41.346 5.094,37.703 9.232,35.916C12.813,34.344 17.815,34.059 21.641,33.629L21.641,32.772C21.641,31.2 21.766,29.344 20.84,27.986C20.036,26.771 18.493,26.271 17.135,26.271C14.617,26.271 12.378,27.561 11.83,30.234C11.715,30.829 11.282,31.418 10.683,31.448L4.287,30.755C3.745,30.632 3.144,30.2 3.3,29.374C4.77,21.614 11.778,19.27 18.06,19.27C21.271,19.27 25.47,20.125 28.001,22.556C31.211,25.556 30.903,29.558 30.903,33.916L30.903,44.197C30.903,47.291 32.187,48.647 33.393,50.313C33.814,50.915 33.91,51.627 33.372,52.067C32.023,53.198 29.627,55.278 28.31,56.451L28.295,56.437Z"/>
                        <path d="M246.028,56.535L230.65,37.891L230.575,37.891L230.575,56.535L225.045,56.535L225.045,2.877L230.575,2.877L230.575,33.344L230.65,33.344L243.832,20.687L251.028,20.687L235.271,35.314L253.074,56.535L246.028,56.535Z" style="fill:rgb(255,153,0);fill-rule:nonzero;"/>
                        <path d="M259.511,13.184C257.39,13.184 255.648,11.441 255.648,9.319C255.648,7.196 257.39,5.454 259.511,5.454C261.632,5.454 263.374,7.196 263.374,9.319C263.374,11.441 261.632,13.184 259.511,13.184ZM256.784,56.535L256.784,20.687L262.313,20.687L262.313,56.535L256.784,56.535Z" style="fill:rgb(255,153,0);fill-rule:nonzero;"/>
                        <path d="M293.392,56.536L293.392,34.481C293.392,30.009 292.635,25.007 287.18,25.007C282.786,25.007 278.772,28.114 276.045,30.465L276.045,56.536L270.515,56.536L270.515,20.687L275.06,20.687L275.818,25.007C279.756,21.976 283.621,19.778 288.621,19.778C293.771,19.778 298.923,23.491 298.923,32.435L298.923,56.536L293.392,56.536Z" style="fill:rgb(255,153,0);fill-rule:nonzero;"/>
                        <path d="M323.313,57.293C313.314,57.293 304.905,51.458 304.905,39.104C304.905,27.964 312.934,19.778 323.388,19.778C325.963,19.778 327.783,20.005 329.221,20.384L329.221,2.877L334.751,2.877L334.751,54.716C332.555,56.005 328.389,57.293 323.313,57.293ZM329.222,25.538C327.784,25.007 326.495,24.629 323.693,24.629C316.647,24.629 310.511,30.162 310.511,38.726C310.511,46.835 314.981,52.595 324.298,52.595C326.115,52.595 328.086,52.216 329.222,51.686L329.222,25.538Z" style="fill:rgb(255,153,0);fill-rule:nonzero;"/>
                        <path d="M349.144,57.293C344.75,57.293 342.857,54.489 342.857,50.699L342.857,2.877L348.387,2.877L348.387,48.198C348.387,51.608 349.22,52.291 351.341,52.291C351.72,52.291 352.326,52.291 353.235,52.064L353.918,56.081C352.25,56.914 350.962,57.293 349.144,57.293Z" style="fill:rgb(255,153,0);fill-rule:nonzero;"/>
                        <path d="M362.854,39.559C362.854,46.38 366.793,52.517 374.52,52.517C377.778,52.517 381.111,51.23 383.232,49.866L384.974,53.806C382.323,55.625 377.778,57.292 373.838,57.292C362.4,57.292 356.944,48.122 356.944,37.89C356.944,27.507 362.853,19.777 371.489,19.777C380.731,19.777 385.806,27.129 385.806,38.27L385.806,39.559L362.854,39.559ZM371.565,24.477C366.263,24.477 362.929,29.176 362.929,34.86L379.823,34.86C379.823,29.858 377.021,24.477 371.565,24.477Z" style="fill:rgb(255,153,0);fill-rule:nonzero;"/>
                    </g>
                </g>
            </g>
            <g transform="matrix(1,0,0,1,-65.3912,1.59335)">
                <text x="86.351px" y="13.136px" style="font-family:'ArialMT', 'Arial', sans-serif;font-size:10.759px;">now available on</text>
            </g>
        </g>
    </g>
</svg>
